<svg width="37" height="36" viewBox="0 0 37 36" fill="none" xmlns="http://www.w3.org/2000/svg">
<g id="clarity:house-line" clip-path="url(#clip0_154_239)">
<path id="Vector" d="M34.21 17.2898L19.21 2.28982C19.0227 2.10357 18.7692 1.99902 18.505 1.99902C18.2408 1.99902 17.9874 2.10357 17.8 2.28982L2.80003 17.2898C2.6362 17.4811 2.55059 17.7272 2.56032 17.9789C2.57004 18.2305 2.67437 18.4693 2.85246 18.6474C3.03056 18.8255 3.2693 18.9298 3.52097 18.9395C3.77265 18.9492 4.01873 18.8636 4.21003 18.6998L18.5 4.40982L32.79 18.7098C32.9813 18.8736 33.2274 18.9592 33.4791 18.9495C33.7308 18.9398 33.9695 18.8355 34.1476 18.6574C34.3257 18.4793 34.43 18.2405 34.4397 17.9889C34.4495 17.7372 34.3639 17.4911 34.2 17.2998L34.21 17.2898Z" fill="#1176BD"/>
<path id="Vector_2" d="M28.5 31.9998H23.5V21.9998H13.5V31.9998H8.5V17.9998L6.5 19.9998V31.9998C6.5 32.5302 6.71071 33.0389 7.08579 33.414C7.46086 33.7891 7.96957 33.9998 8.5 33.9998H15.5V23.9998H21.5V33.9998H28.5C29.0304 33.9998 29.5391 33.7891 29.9142 33.414C30.2893 33.0389 30.5 32.5302 30.5 31.9998V19.7598L28.5 17.7598V31.9998Z" fill="#1176BD"/>
</g>
<defs>
<clipPath id="clip0_154_239">
<rect width="36" height="36" fill="white" transform="translate(0.5)"/>
</clipPath>
</defs>
</svg>
