<svg width="25" height="24" viewBox="0 0 25 24" fill="none" xmlns="http://www.w3.org/2000/svg">
<rect x="1" y="0.5" width="23" height="23" rx="11.5" fill="#DCF4EE"/>
<path d="M16.7 18H17.3V16.8H16.7V16.2C16.6988 15.4711 16.5084 14.755 16.1473 14.1218C15.7862 13.4887 15.2669 12.9601 14.6402 12.588C14.4272 12.462 14.3 12.2598 14.3 12.0474V11.9526C14.3 11.7402 14.4272 11.538 14.6396 11.4126C15.2664 11.0404 15.7859 10.5118 16.147 9.87851C16.5082 9.24524 16.6987 8.52903 16.7 7.8V7.2H17.3V6H7.69995V7.2H8.29995V7.8C8.30117 8.52903 8.49169 9.24524 8.85287 9.87851C9.21405 10.5118 9.7335 11.0404 10.3604 11.4126C10.5728 11.538 10.7 11.7396 10.7 11.9526V12.0474C10.7 12.2598 10.5728 12.462 10.3604 12.5874C9.7335 12.9596 9.21405 13.4882 8.85287 14.1215C8.49169 14.7548 8.30117 15.471 8.29995 16.2V16.8H7.69995V18H16.7ZM15.5 7.2V7.8C15.499 8.44935 15.2877 9.08091 14.8976 9.6H10.1024C9.71222 9.08091 9.50086 8.44935 9.49995 7.8V7.2H15.5ZM10.97 13.6212C11.5526 13.2768 11.9 12.6888 11.9 12.0474V12H13.1V12.0474C13.1 12.6882 13.4474 13.2768 14.0306 13.6212C14.5697 13.942 14.9941 14.4244 15.2438 15H9.75615C10.0058 14.4243 10.4305 13.9418 10.97 13.6212Z" fill="#74CBB5"/>
<rect x="1" y="0.5" width="23" height="23" rx="11.5" stroke="#74CBB5"/>
</svg>
