<svg width="25" height="24" viewBox="0 0 25 24" fill="none" xmlns="http://www.w3.org/2000/svg">
<rect x="1.25" y="0.5" width="23" height="23" rx="11.5" fill="#FFE8CC"/>
<path d="M11.2509 16.5009C11.2509 16.3041 11.2897 16.1091 11.365 15.9273C11.4404 15.7454 11.5508 15.5801 11.69 15.4409C11.8292 15.3017 11.9944 15.1913 12.1763 15.116C12.3582 15.0406 12.5531 15.0019 12.75 15.0019C12.9468 15.0019 13.1418 15.0406 13.3236 15.116C13.5055 15.1913 13.6708 15.3017 13.81 15.4409C13.9492 15.5801 14.0596 15.7454 14.1349 15.9273C14.2103 16.1091 14.249 16.3041 14.249 16.5009C14.249 16.8985 14.0911 17.2798 13.81 17.5609C13.5288 17.8421 13.1476 18 12.75 18C12.3524 18 11.9711 17.8421 11.69 17.5609C11.4089 17.2798 11.2509 16.8985 11.2509 16.5009ZM11.3978 7.49906C11.3779 7.30994 11.3979 7.11874 11.4566 6.93786C11.5153 6.75697 11.6114 6.59045 11.7386 6.4491C11.8658 6.30775 12.0213 6.19472 12.195 6.11735C12.3688 6.03998 12.5568 6 12.747 6C12.9372 6 13.1252 6.03998 13.2989 6.11735C13.4726 6.19472 13.6282 6.30775 13.7554 6.4491C13.8826 6.59045 13.9787 6.75697 14.0374 6.93786C14.0961 7.11874 14.1161 7.30994 14.0961 7.49906L13.5715 12.7563C13.5501 12.9601 13.4541 13.1488 13.3018 13.286C13.1496 13.4231 12.9519 13.499 12.747 13.499C12.5421 13.499 12.3444 13.4231 12.1921 13.286C12.0399 13.1488 11.9438 12.9601 11.9225 12.7563L11.3978 7.49906Z" fill="#F98900"/>
<rect x="1.25" y="0.5" width="23" height="23" rx="11.5" stroke="#F98900"/>
</svg>
