<svg width="25" height="24" viewBox="0 0 25 24" fill="none" xmlns="http://www.w3.org/2000/svg">
<rect x="0.75" y="0.5" width="23" height="23" rx="11.5" fill="#D3D3D3"/>
<path d="M12.25 6C11.3275 6 10.4428 6.36646 9.79049 7.01876C9.13819 7.67106 8.77173 8.55577 8.77173 9.47826C8.77173 9.66276 8.84502 9.8397 8.97548 9.97016C9.10594 10.1006 9.28288 10.1739 9.46738 10.1739C9.65188 10.1739 9.82882 10.1006 9.95928 9.97016C10.0897 9.8397 10.163 9.66276 10.163 9.47826C10.163 8.32487 11.0966 7.3913 12.25 7.3913C13.4034 7.3913 14.337 8.32487 14.337 9.47826C14.337 10.0459 14.1985 10.3784 14.0323 10.6115C13.85 10.8654 13.5975 11.0553 13.2476 11.2967L13.1669 11.351C12.8559 11.5638 12.4552 11.8372 12.145 12.2184C11.7783 12.6692 11.5543 13.239 11.5543 14V14.3478C11.5543 14.5323 11.6276 14.7093 11.7581 14.8397C11.8886 14.9702 12.0655 15.0435 12.25 15.0435C12.4345 15.0435 12.6114 14.9702 12.7419 14.8397C12.8724 14.7093 12.9457 14.5323 12.9457 14.3478V14C12.9457 13.5437 13.0695 13.2877 13.2239 13.0963C13.4027 12.8779 13.6434 12.7123 13.9989 12.4682L14.0357 12.4424C14.3808 12.2059 14.8239 11.8957 15.1627 11.4212C15.5196 10.9259 15.7283 10.3012 15.7283 9.47826C15.7283 8.55577 15.3618 7.67106 14.7095 7.01876C14.0572 6.36646 13.1725 6 12.25 6ZM12.25 18C12.4806 18 12.7018 17.9084 12.8649 17.7453C13.028 17.5822 13.1196 17.3611 13.1196 17.1304C13.1196 16.8998 13.028 16.6786 12.8649 16.5156C12.7018 16.3525 12.4806 16.2609 12.25 16.2609C12.0194 16.2609 11.7982 16.3525 11.6351 16.5156C11.472 16.6786 11.3804 16.8998 11.3804 17.1304C11.3804 17.3611 11.472 17.5822 11.6351 17.7453C11.7982 17.9084 12.0194 18 12.25 18Z" fill="#696969"/>
<rect x="0.75" y="0.5" width="23" height="23" rx="11.5" stroke="#696969"/>
</svg>
